<svg xmlns="http://www.w3.org/2000/svg" width="20" height="20" viewBox="0 0 20 20" fill="none">
	<path
		d="M10 1C12.4442 1 12.7511 1.01049 13.7109 1.05469C14.6688 1.09831 15.3232 1.25028 15.8955 1.47266C16.4959 1.69864 17.0397 2.05287 17.4893 2.51074C17.947 2.96007 18.3013 3.50401 18.5273 4.10449C18.7499 4.67682 18.9015 5.33127 18.9453 6.28906C18.9891 7.24886 19 7.55581 19 10C19 12.4442 18.9891 12.7511 18.9453 13.7109C18.9015 14.6687 18.7497 15.3232 18.5273 15.8955C18.0597 17.1043 17.1041 18.0597 15.8955 18.5273C15.3232 18.7499 14.6687 18.9015 13.7109 18.9453C12.7511 18.9891 12.4442 19 10 19C7.55581 19 7.24906 18.9893 6.28906 18.9453C5.33126 18.9015 4.67682 18.7497 4.10449 18.5273C3.50419 18.3013 2.96028 17.947 2.51074 17.4893C2.053 17.0399 1.69866 16.496 1.47266 15.8955C1.25008 15.3232 1.09851 14.6687 1.05469 13.7109C1.01069 12.7511 1 12.4442 1 10C1 7.55581 1.01069 7.24906 1.05469 6.28906C1.0983 5.33115 1.25027 4.67686 1.47266 4.10449C1.69884 3.50421 2.05284 2.96028 2.51074 2.51074C2.96007 2.05302 3.50401 1.69866 4.10449 1.47266C4.67682 1.25009 5.33127 1.09851 6.28906 1.05469C7.24886 1.01089 7.55581 1 10 1ZM10 2.62207C7.59688 2.62187 7.31221 2.63043 6.36328 2.67383C5.48586 2.71382 5.00958 2.86119 4.69238 2.98438C4.30158 3.12857 3.94763 3.35823 3.65723 3.65723C3.35823 3.94743 3.1276 4.30138 2.9834 4.69238C2.86024 5.00958 2.71381 5.48631 2.67383 6.36328C2.63063 7.31239 2.62207 7.59706 2.62207 10C2.62207 12.4029 2.63064 12.688 2.67383 13.6367C2.71383 14.5143 2.86118 14.9914 2.98438 15.3086C3.12857 15.6992 3.3584 16.0525 3.65723 16.3428C3.94743 16.6416 4.30138 16.8724 4.69238 17.0166C5.00958 17.1398 5.4863 17.2862 6.36328 17.3262C7.31202 17.3696 7.59688 17.3789 10 17.3789C12.4031 17.3789 12.688 17.3698 13.6367 17.3262C14.5141 17.2862 14.9904 17.1388 15.3076 17.0156C16.0924 16.7128 16.7128 16.0924 17.0156 15.3076C17.1388 14.9904 17.2862 14.5139 17.3262 13.6367C17.3694 12.6878 17.3779 12.4031 17.3779 10C17.3779 7.59688 17.3694 7.31221 17.3262 6.36328C17.2862 5.48586 17.1388 5.00958 17.0156 4.69238C16.8714 4.30158 16.6418 3.94763 16.3428 3.65723C16.0526 3.35843 15.6986 3.12857 15.3076 2.98438C14.9904 2.86119 14.5139 2.71382 13.6367 2.67383C12.6878 2.63063 12.4029 2.62207 10 2.62207ZM10 5.37793C12.5524 5.37793 14.6221 7.44761 14.6221 10C14.6221 12.5524 12.5524 14.6221 10 14.6221C7.44761 14.6221 5.37891 12.5524 5.37891 10C5.37891 7.44761 7.44761 5.37794 10 5.37793ZM10 7C8.34321 7.00001 7.00001 8.34321 7 10C7 11.6568 8.34321 13 10 13C11.6568 13 13 11.6568 13 10C13 8.34321 11.6568 7 10 7ZM14.8037 4.11621C15.4002 4.11621 15.8838 4.59982 15.8838 5.19629C15.8836 5.79263 15.4001 6.27637 14.8037 6.27637C14.2075 6.27621 13.7238 5.79253 13.7236 5.19629C13.7236 4.59992 14.2074 4.11637 14.8037 4.11621Z"
		fill="white" fill-opacity="0.56" />
</svg>