<svg xmlns="http://www.w3.org/2000/svg" width="20" height="20" viewBox="0 0 20 20" fill="none">
	<g opacity="0.56" transform="translate(3.5, 2.5) scale(1.1)">
		<path
			d="M14.1868 4.32041V6.4042C14.1868 6.4042 13.1996 6.36553 12.4684 6.17961C11.448 5.91958 10.7918 5.52076 10.7918 5.52076C10.7918 5.52076 10.339 5.23635 10.3024 5.2162V10.7099C10.3024 11.0158 10.2187 11.78 9.96329 12.4167C9.62992 13.2504 9.11546 13.7974 9.02084 13.9093C9.02084 13.9093 8.39481 14.6487 7.29128 15.1467C6.29661 15.5959 5.42301 15.5845 5.16154 15.5959C5.16154 15.5959 3.65173 15.6557 2.2925 14.7726L2.28572 14.7677C2.14221 14.6287 2.00713 14.482 1.88113 14.3282C1.44739 13.7994 1.18151 13.174 1.1147 12.9956C1.11458 12.9948 1.11458 12.9941 1.1147 12.9933C1.0072 12.6832 0.781335 11.9386 0.812196 11.2173C0.866796 9.94481 1.31445 9.16375 1.4328 8.96808C1.74626 8.43449 2.15395 7.95708 2.63773 7.5571C3.06464 7.21196 3.54853 6.93734 4.06954 6.74452C4.63278 6.51812 5.23591 6.39677 5.84658 6.38698V8.49645C5.84658 8.49645 4.72949 8.14217 3.83554 8.76948C3.21053 9.23363 2.87886 9.68641 2.78119 10.4951C2.77712 11.0902 2.92939 11.9324 3.76466 12.4941C3.86211 12.5558 3.95774 12.6106 4.05157 12.6585C4.19749 12.8482 4.3751 13.0135 4.57722 13.1477C5.39317 13.6642 6.07685 13.7003 6.95113 13.3648C7.5341 13.1406 7.97293 12.6351 8.17641 12.0751C8.30426 11.7254 8.30257 11.3733 8.30257 11.0093V0.653687H10.3373C10.4215 1.13181 10.6541 1.81244 11.2693 2.48656C11.5161 2.74109 11.794 2.96613 12.0971 3.15678C12.1866 3.24942 12.6445 3.70739 13.2322 3.98855C13.5361 4.13387 13.8564 4.24523 14.1868 4.32041V4.32041Z"
			fill="white" />
		<path
			d="M0.305176 12.348V12.3496L0.355666 12.4865C0.349866 12.4706 0.331103 12.4221 0.305176 12.348Z"
			fill="white" />
		<path
			d="M4.07051 6.74478C3.5495 6.9376 3.06561 7.21222 2.6387 7.55737C2.15477 7.95825 1.74718 8.43666 1.43411 8.97127C1.31576 9.16629 0.868104 9.948 0.813504 11.2205C0.782643 11.9418 1.0085 12.6864 1.11601 12.9965C1.11589 12.9973 1.11589 12.998 1.11601 12.9988C1.18383 13.1756 1.44869 13.801 1.88244 14.3314C2.00844 14.4852 2.14352 14.6319 2.28702 14.7709C1.82723 14.4661 1.41716 14.0976 1.07023 13.6775C0.640208 13.1532 0.375009 12.5343 0.305826 12.3516C0.305745 12.3503 0.305745 12.349 0.305826 12.3477V12.3455C0.197983 12.0357 -0.0285561 11.2907 0.00298302 10.5685C0.057583 9.29598 0.505234 8.51492 0.623591 8.31925C0.936565 7.78458 1.34417 7.30615 1.82818 6.90535C2.255 6.56008 2.73891 6.28545 3.25999 6.09276C3.58501 5.96351 3.92361 5.86816 4.26992 5.80835C4.79183 5.72103 5.32487 5.71347 5.84925 5.78593V6.38724C5.238 6.39683 4.63428 6.51818 4.07051 6.74478Z"
			fill="white" />
		<path
			d="M10.3399 0.65397H8.30509V11.0099C8.30509 11.3739 8.30509 11.725 8.17893 12.0757C7.97342 12.6354 7.53628 13.1408 6.95365 13.3651C6.07904 13.7018 5.39535 13.6645 4.57974 13.148C4.37727 13.0144 4.19921 12.8496 4.05273 12.6604C4.74761 13.0157 5.36958 13.0095 6.14008 12.7131C6.72237 12.4888 7.16018 11.9834 7.36502 11.4234C7.49321 11.0736 7.49151 10.7216 7.49151 10.3579V0H10.3012C10.3012 0 10.2697 0.257428 10.3399 0.65397ZM14.1876 3.7444V4.32069C13.8578 4.24539 13.538 4.13404 13.2347 3.98883C12.647 3.70767 12.1891 3.2497 12.0996 3.15706C12.2035 3.22244 12.3113 3.28191 12.4225 3.33518C13.137 3.67712 13.8407 3.77918 14.1876 3.7444Z"
			fill="white" />
	</g>
</svg>