<svg xmlns="http://www.w3.org/2000/svg" width="20" height="20" viewBox="0 0 20 20" fill="none">
	<g opacity="0.56">
		<path
			d="M10 2.85742C12.2061 2.85742 15.1341 2.97957 17.1826 3.08105C18.5972 3.15118 19.7333 4.2586 19.8252 5.67188C19.9132 7.02603 20 8.69261 20 10C20 11.3074 19.9132 12.974 19.8252 14.3281C19.7332 15.7413 18.5971 16.8488 17.1826 16.9189C15.1341 17.0204 12.2061 17.1426 10 17.1426C7.79391 17.1426 4.8659 17.0204 2.81738 16.9189C1.40293 16.8488 0.26684 15.7413 0.174805 14.3281C0.0868491 12.974 5.9648e-06 11.3074 0 10C0 8.69261 0.086846 7.02603 0.174805 5.67188C0.266713 4.2586 1.40285 3.15118 2.81738 3.08105C4.8659 2.97957 7.79391 2.85742 10 2.85742ZM7.85742 12.8574L13.5713 10L7.85742 7.14258V12.8574Z"
			fill="white" />
	</g>
</svg>